<svg width="1440" height="664" viewBox="0 0 1440 664" fill="none" xmlns="http://www.w3.org/2000/svg">
<path d="M0 59H1442V663L458 466L0 59Z" fill="#565656"/>
<path d="M653.22 315.945L709.82 294.948L699.226 355.034L653.22 315.945Z" fill="#828282" fill-opacity="0.8"/>
<path d="M726.796 528.715L783.397 507.718L772.802 567.804L726.796 528.715Z" fill="#828282" fill-opacity="0.8"/>
<path d="M687.577 45.0337L777.862 109.783L675.283 155.454L687.577 45.0337Z" fill="#828282" fill-opacity="0.8"/>
<path d="M774.406 386.485L846.517 335.438L854.5 424.536L774.406 386.485Z" fill="#828282" fill-opacity="0.8"/>
<path d="M650.271 238.648L636.471 201.446L675.964 208.409L650.271 238.648Z" fill="#828282" fill-opacity="0.8"/>
<path d="M988.325 148.249L974.524 111.047L1014.02 118.01L988.325 148.249Z" fill="#828282" fill-opacity="0.8"/>
<path d="M786.575 229.696L798.797 160.38L845.479 215.632L786.575 229.696Z" fill="#828282" fill-opacity="0.8"/>
<path d="M906.295 306.78L918.517 237.464L965.199 292.716L906.295 306.78Z" fill="#828282" fill-opacity="0.8"/>
</svg>
