<svg width="194" height="96" viewBox="0 0 194 96" fill="none" xmlns="http://www.w3.org/2000/svg">
<path d="M82.916 -4.29544L93.0197 12.9582H72.8123L82.916 -4.29544Z" fill="#FFE100" fill-opacity="0.8"/>
<path d="M11.6667 29.2818L21.7704 46.5354H1.56305L11.6667 29.2818Z" fill="#FFE100" fill-opacity="0.8"/>
<path d="M181.356 -6.19958L165.43 26.9722L144.634 -3.85906L181.356 -6.19958Z" fill="#FFE100" fill-opacity="0.8"/>
<path d="M65.951 35.7397L86.7482 56.324L58.1464 64.0523L65.951 35.7397Z" fill="#FFE100" fill-opacity="0.8"/>
<path d="M27.4603 64.6773L28.6661 80.5179L14.2353 73.4795L27.4603 64.6773Z" fill="#FFE100" fill-opacity="0.8"/>
<path d="M163.34 88.3317L174.68 81.6908V94.9726L163.34 88.3317Z" fill="#FFE100" fill-opacity="0.8"/>
<path d="M122.474 31.5822H145.785L130.449 49.9861L122.474 31.5822Z" fill="#FFE100" fill-opacity="0.8"/>
<path d="M102.772 71.8749H126.083L110.747 90.2788L102.772 71.8749Z" fill="#FFE100" fill-opacity="0.8"/>
</svg>
